<svg width="1478" height="630" viewBox="0 0 1478 630" fill="none" xmlns="http://www.w3.org/2000/svg">
<rect width="1304" height="494" rx="44" fill="#FC4C00"/>
<path opacity="0.59" d="M311 494C311 457.931 296.671 423.338 271.167 397.833C245.662 372.329 211.069 358 175 358C138.931 358 104.338 372.329 78.8335 397.833C53.3285 423.338 39 457.931 39 494L175 494H311Z" fill="#F7733C"/>
<path opacity="0.59" d="M1302.34 328.193C1266.28 327.699 1231.88 312.898 1206.73 287.046C1181.58 261.194 1167.72 226.408 1168.22 190.342C1168.71 154.276 1183.51 119.884 1209.37 94.7307C1235.22 69.5776 1270 55.7244 1306.07 56.2186L1305.32 110.547C1283.67 110.25 1262.78 118.569 1247.26 133.673C1231.73 148.777 1222.84 169.43 1222.55 191.087C1222.25 212.744 1230.57 233.632 1245.67 249.156C1260.78 264.68 1281.43 273.568 1303.09 273.865L1302.34 328.193Z" fill="#F7733C"/>
<circle cx="43" cy="45" r="4" fill="white"/>
<circle cx="43" cy="65" r="4" fill="white"/>
<circle cx="43" cy="85" r="4" fill="white"/>
<circle cx="43" cy="105" r="4" fill="white"/>
<circle cx="43" cy="125" r="4" fill="white"/>
<circle cx="43" cy="145" r="4" fill="white"/>
<circle cx="43" cy="165" r="4" fill="white"/>
<circle cx="43" cy="185" r="4" fill="white"/>
<circle cx="72" cy="45" r="4" fill="white"/>
<circle cx="72" cy="65" r="4" fill="white"/>
<circle cx="72" cy="85" r="4" fill="white"/>
<circle cx="72" cy="105" r="4" fill="white"/>
<circle cx="72" cy="125" r="4" fill="white"/>
<circle cx="72" cy="145" r="4" fill="white"/>
<circle cx="72" cy="165" r="4" fill="white"/>
<circle cx="72" cy="185" r="4" fill="white"/>
<circle cx="101" cy="45" r="4" fill="white"/>
<circle cx="101" cy="65" r="4" fill="white"/>
<circle cx="101" cy="85" r="4" fill="white"/>
<circle cx="101" cy="105" r="4" fill="white"/>
<circle cx="101" cy="125" r="4" fill="white"/>
<circle cx="101" cy="145" r="4" fill="white"/>
<circle cx="101" cy="165" r="4" fill="white"/>
<circle cx="101" cy="185" r="4" fill="white"/>
<circle cx="130" cy="45" r="4" fill="white"/>
<circle cx="130" cy="65" r="4" fill="white"/>
<circle cx="130" cy="85" r="4" fill="white"/>
<circle cx="130" cy="105" r="4" fill="white"/>
<circle cx="130" cy="125" r="4" fill="white"/>
<circle cx="130" cy="145" r="4" fill="white"/>
<circle cx="130" cy="165" r="4" fill="white"/>
<circle cx="130" cy="185" r="4" fill="white"/>
<circle cx="159" cy="45" r="4" fill="white"/>
<circle cx="159" cy="65" r="4" fill="white"/>
<circle cx="159" cy="85" r="4" fill="white"/>
<circle cx="159" cy="105" r="4" fill="white"/>
<circle cx="159" cy="125" r="4" fill="white"/>
<circle cx="159" cy="145" r="4" fill="white"/>
<circle cx="159" cy="165" r="4" fill="white"/>
<circle cx="159" cy="185" r="4" fill="white"/>
<circle cx="1116" cy="385" r="4" fill="white"/>
<circle cx="1116" cy="405" r="4" fill="white"/>
<circle cx="1116" cy="425" r="4" fill="white"/>
<circle cx="1116" cy="445" r="4" fill="white"/>
<circle cx="1116" cy="465" r="4" fill="white"/>
<circle cx="1145" cy="385" r="4" fill="white"/>
<circle cx="1145" cy="405" r="4" fill="white"/>
<circle cx="1145" cy="425" r="4" fill="white"/>
<circle cx="1145" cy="445" r="4" fill="white"/>
<circle cx="1145" cy="465" r="4" fill="white"/>
<circle cx="1174" cy="385" r="4" fill="white"/>
<circle cx="1174" cy="405" r="4" fill="white"/>
<circle cx="1174" cy="425" r="4" fill="white"/>
<circle cx="1174" cy="445" r="4" fill="white"/>
<circle cx="1174" cy="465" r="4" fill="white"/>
<circle cx="1203" cy="385" r="4" fill="white"/>
<circle cx="1203" cy="405" r="4" fill="white"/>
<circle cx="1203" cy="425" r="4" fill="white"/>
<circle cx="1203" cy="445" r="4" fill="white"/>
<circle cx="1203" cy="465" r="4" fill="white"/>
<circle cx="1232" cy="385" r="4" fill="white"/>
<circle cx="1232" cy="405" r="4" fill="white"/>
<circle cx="1232" cy="425" r="4" fill="white"/>
<circle cx="1232" cy="445" r="4" fill="white"/>
<circle cx="1232" cy="465" r="4" fill="white"/>
</svg>
