<svg width="35" height="35" viewBox="0 0 35 35" fill="none" xmlns="http://www.w3.org/2000/svg">
<circle cx="17.5" cy="17.5" r="17.5" fill="#FC4C00"/>
<path d="M9 11.2278C9.00002 11.1437 9.02498 11.0615 9.07174 10.9916C9.11849 10.9217 9.18492 10.8673 9.26264 10.8351C9.34035 10.803 9.42585 10.7947 9.50831 10.8112C9.59077 10.8277 9.66649 10.8682 9.72587 10.9278L14.8342 16.0362C14.9413 16.1433 14.9787 16.2997 14.9617 16.4501C14.9201 16.801 14.9889 17.1561 15.1585 17.466C15.3281 17.776 15.59 18.0254 15.9079 18.1795C16.2258 18.3337 16.5838 18.385 16.9322 18.3264C17.2806 18.2677 17.602 18.1019 17.8518 17.8521C18.1017 17.6022 18.2674 17.2808 18.3261 16.9324C18.3848 16.584 18.3335 16.226 18.1793 15.9081C18.0251 15.5902 17.7757 15.3283 17.4658 15.1587C17.1559 14.9891 16.8008 14.9203 16.45 14.9618C16.3758 14.9731 16.3001 14.9675 16.2284 14.9454C16.1567 14.9233 16.091 14.8854 16.036 14.8343L10.9277 9.72589C10.8682 9.66655 10.8277 9.59091 10.8112 9.50853C10.7946 9.42615 10.8029 9.34072 10.8349 9.26304C10.867 9.18536 10.9213 9.11891 10.991 9.07209C11.0608 9.02527 11.1429 9.00019 11.2269 9H16.6497C17.8778 8.99973 19.0878 9.29513 20.1777 9.86124C21.2675 10.4274 22.205 11.2475 22.9109 12.2524C23.6168 13.2574 24.0705 14.4175 24.2334 15.6347C24.3964 16.8519 24.2639 18.0905 23.8472 19.2458L25.7511 21.1489C25.9105 21.3083 26 21.5244 26 21.7498C26 21.9752 25.9105 22.1914 25.7511 22.3508L22.3513 25.7507C22.2723 25.8297 22.1786 25.8924 22.0754 25.9352C21.9722 25.978 21.8616 26 21.7499 26C21.6382 26 21.5276 25.978 21.4244 25.9352C21.3213 25.8924 21.2275 25.8297 21.1486 25.7507L19.2455 23.8476C18.0903 24.2643 16.8517 24.3968 15.6345 24.2338C14.4173 24.0708 13.2573 23.6172 12.2524 22.9113C11.2475 22.2053 10.4273 21.2678 9.86122 20.1779C9.29512 19.0881 8.99973 17.878 9 16.6499V11.2278Z" fill="white"/>
</svg>
