<svg width="35" height="35" viewBox="0 0 35 35" fill="none" xmlns="http://www.w3.org/2000/svg">
<circle cx="17.5" cy="17.5" r="17.5" fill="#FC4C00"/>
<path d="M17.5 24C16.0558 23.2771 14.4176 22.8966 12.75 22.8966C11.0824 22.8966 9.44418 23.2771 8 24V12.1034C9.44418 11.3806 11.0824 11 12.75 11C14.4176 11 16.0558 11.3806 17.5 12.1034M17.5 24C18.9442 23.2771 20.5824 22.8966 22.25 22.8966C23.9176 22.8966 25.5558 23.2771 27 24V12.1034C25.5558 11.3806 23.9176 11 22.25 11C20.5824 11 18.9442 11.3806 17.5 12.1034M17.5 24V12.1034" stroke="white" stroke-width="2" stroke-linecap="round" stroke-linejoin="round"/>
</svg>
