<svg width="35" height="35" viewBox="0 0 35 35" fill="none" xmlns="http://www.w3.org/2000/svg">
<circle cx="17.5" cy="17.5" r="17.5" fill="#FC4C00"/>
<path d="M13.5396 22.0328L8.85919 17.5L13.5396 12.9671C13.6508 12.8607 13.7391 12.734 13.7993 12.5944C13.8595 12.4547 13.8906 12.3048 13.8906 12.1535C13.8906 12.0021 13.8595 11.8523 13.7993 11.7126C13.7391 11.573 13.6508 11.4463 13.5396 11.3399C13.4298 11.2322 13.299 11.1467 13.1548 11.0884C13.0105 11.03 12.8558 11 12.6995 11C12.5433 11 12.3885 11.03 12.2443 11.0884C12.1001 11.1467 11.9693 11.2322 11.8595 11.3399L6.35096 16.6747C6.23971 16.7823 6.15145 16.91 6.09122 17.0506C6.031 17.1912 6 17.3419 6 17.4942C6 17.6464 6.031 17.7971 6.09122 17.9377C6.15145 18.0783 6.23971 18.206 6.35096 18.3136L11.8595 23.66C12.3275 24.1133 13.0716 24.1133 13.5396 23.66C13.6508 23.5537 13.7391 23.427 13.7993 23.2873C13.8595 23.1477 13.8906 22.9978 13.8906 22.8464C13.8906 22.6951 13.8595 22.5452 13.7993 22.4056C13.7391 22.2659 13.6508 22.1392 13.5396 22.0328ZM21.4603 22.0328L26.1407 17.5L21.4603 12.9671C21.3491 12.8607 21.2609 12.734 21.2006 12.5944C21.1404 12.4547 21.1094 12.3048 21.1094 12.1535C21.1094 12.0021 21.1404 11.8523 21.2006 11.7126C21.2609 11.573 21.3491 11.4463 21.4603 11.3399C21.5702 11.2322 21.701 11.1467 21.8452 11.0884C21.9894 11.03 22.1441 11 22.3004 11C22.4567 11 22.6114 11.03 22.7556 11.0884C22.8998 11.1467 23.0306 11.2322 23.1405 11.3399L28.649 16.6747C29.117 17.128 29.117 17.8603 28.649 18.3136L23.1405 23.66C23.0306 23.7677 22.8998 23.8532 22.7556 23.9115C22.6114 23.9699 22.4567 23.9999 22.3004 23.9999C22.1441 23.9999 21.9894 23.9699 21.8452 23.9115C21.701 23.8532 21.5702 23.7677 21.4603 23.66C21.3491 23.5537 21.2609 23.427 21.2006 23.2873C21.1404 23.1477 21.1094 22.9978 21.1094 22.8464C21.1094 22.6951 21.1404 22.5452 21.2006 22.4056C21.2609 22.2659 21.3491 22.1392 21.4603 22.0328Z" fill="white"/>
</svg>
